# xmcd
#
# Track frame offsets:
#	150
#	17747
#	29667
#	46046
#	59673
#	76590
#	91875
#	112004
#	129537
#	151270
#
# Disc length: 2223 seconds
#
# Revision: 1
# Processed by: cddbd v1.5.2PL0 Copyright (c) Steve Scherf et al.
# Submitted via: audiograbber 1.83.01
#
DISCID=7608ad0a
DTITLE=Terry and Debra Luna - We Are Family
DYEAR=2014
DGENRE=
TTITLE0=Don't Tell Me He Can't I Know He Can
TTITLE1=Please Be Patient
TTITLE2=End Of The Day
TTITLE3=I'm Gonna Sing
TTITLE4=At My Savior's Feet
TTITLE5=We Are A Family
TTITLE6=Zacchaeus
TTITLE7=Blessings For Obedience (Deut. 28)
TTITLE8=Stand Up And Fight
TTITLE9=Papa, Can We Go Fishin'?
EXTD=
EXTT0=
EXTT1=
EXTT2=
EXTT3=
EXTT4=
EXTT5=
EXTT6=
EXTT7=
EXTT8=
EXTT9=
PLAYORDER=
